<?xml version="1.0" encoding="utf-8"?>
<!-- Generator: Adobe Illustrator 13.0.0, SVG Export Plug-In . SVG Version: 6.00 Build 14948)  -->
<!DOCTYPE svg PUBLIC "-//W3C//DTD SVG 1.0//EN" "http://www.w3.org/TR/2001/REC-SVG-20010904/DTD/svg10.dtd">
<svg version="1.0" xmlns="http://www.w3.org/2000/svg" xmlns:xlink="http://www.w3.org/1999/xlink" x="0px" y="0px" width="417px"
	 height="199px" viewBox="0 0 417 199" enable-background="new 0 0 417 199" xml:space="preserve">
<g id="BoundingBox">
	<rect fill="none" width="417" height="199"/>
</g>
<g id="weisses_dreieck">
	<polygon fill="#FFFFFF" points="0.52539,198.37891 0.52539,123.94434 0.44922,123.79395 0.44922,115.72852 0.52539,115.56641 
		0.52539,83.39697 0.44922,83.28174 0.44922,75.21533 0.52539,75.0376 0.52734,0.4751 0.44922,0.2876 0.65332,0.41113 
		64.70801,15.6875 64.92383,15.66064 73.52344,17.71045 73.63086,17.83447 100.80664,24.30322 100.95996,24.25244 
		109.5498,26.30029 109.66602,26.44385 314.12109,75.15771 314.70312,75.21533 348.5293,83.28076 348.74609,83.42822 
		416.10547,99.46191 416.55176,99.5 416.05859,99.53809 348.54688,115.62695 348.48633,115.72852 314.70215,123.78418 
		313.73047,123.91211 109.67871,172.55762 109.54883,172.69922 100.95898,174.74707 100.84766,174.68555 73.63672,181.12695 
		73.52637,181.28711 64.92188,183.33887 64.76074,183.24023 0.59082,198.52148 0.44922,198.71191 	"/>
</g>
<g id="Logo">
	<path fill="#009D53" d="M109.54883,172.69922l205.11035-48.90527H109.54883V172.69922z M109.54883,26.30029v48.91553h205.15332
		L109.54883,26.30029z M0.44922,198.71191l64.47266-15.37207v-59.5459H0.44922V198.71191z M0.44922,75.21582h64.47266V15.6626
		L0.44922,0.28809V75.21582z"/>
	<path fill="#014DA2" d="M116.78711,84.56592c-3.60645-1.66846-9.76562-1.28369-9.76562-1.28369H36.0459l-0.00098-0.00098
		c-2.39648,0-4.33984,1.94287-4.33984,4.34033c0,2.39697,1.94336,4.34033,4.33984,4.34033v0.00928h3.49023l61.42383,61.45166
		v-6.33984L45.74707,91.97119h45.33691l23.89551,23.75732h34.625l-25.64844-25.26807
		C123.95605,90.46045,118.93945,85.56152,116.78711,84.56592z M76.12305,70.96875c0,5.58105,4.52441,10.10498,10.10449,10.10498
		c5.58105,0,10.10449-4.52393,10.10449-10.10498c0-5.58057-4.52344-10.10498-10.10449-10.10498
		C80.64746,60.86377,76.12305,65.38818,76.12305,70.96875z M86.33984,96.63232c-3.00195,0-5.11328,2.05615-5.11328,2.05615
		l-12.63477,13.2832l3.94824,3.75684h5.0459l8.63379-8.0752l8.37695,8.0752h13.28906l-17.40625-17.3916
		C90.47949,98.33691,89.08594,96.63232,86.33984,96.63232z M86.22852,55.56982
		c10.99902,0.10156,14.73145,10.55078,14.73145,10.55078V24.25244l-27.43359-6.54102v44.1084
		C73.52637,61.81982,77.42188,55.48877,86.22852,55.56982z M0.44922,83.28125v32.44727h52.29004L20.01758,83.28125H0.44922z
		 M348.5293,83.28125H127.60938l32.75977,32.44727h188.11719L416.55176,99.5L348.5293,83.28125z M73.52637,181.28809
		l27.43262-6.54102v-10.86133l-27.43262-27.08203V181.28809z"/>
	<path fill="#FFFFFF" d="M169.61719,103.12012c1.0625,0.62891,2.43652,0.95703,4.12207,0.98633
		c0.67773,0.01367,1.25098-0.08008,1.71973-0.2832c0.48926-0.19531,0.74121-0.58594,0.75488-1.17285
		c0-0.35547-0.09375-0.64941-0.28223-0.87891c-0.19531-0.23047-0.46777-0.41602-0.81641-0.55469
		c-0.32812-0.14648-0.69727-0.2832-1.1084-0.4082c-0.41211-0.13281-0.84766-0.27051-1.30762-0.40918
		c-0.42578-0.14648-0.84766-0.32715-1.2666-0.54395c-0.42578-0.20996-0.80957-0.47168-1.15039-0.78564
		c-0.74707-0.61426-1.12695-1.58105-1.14062-2.90088c0-0.90039,0.20312-1.65088,0.61035-2.25146
		c0.38672-0.60059,0.89062-1.07178,1.51172-1.41357c0.63477-0.3418,1.3291-0.58643,2.08105-0.7334
		c0.74512-0.12549,1.49414-0.18848,2.24707-0.18848c1.4834,0.01465,2.75293,0.19873,3.80957,0.55322l-0.25293,3.07812
		c-1.06543-0.4541-2.17871-0.68164-3.3418-0.68164c-0.24609,0-0.51953,0.00732-0.82031,0.021
		c-0.30176,0.02783-0.5957,0.0835-0.88281,0.16748c-0.63086,0.16064-0.95996,0.56201-0.98828,1.20459
		c0,0.2998,0.1084,0.54053,0.32422,0.72217c0.20312,0.18848,0.47461,0.3457,0.81641,0.47119
		c0.3418,0.11865,0.72559,0.24072,1.15137,0.3667c0.41895,0.13281,0.84082,0.26904,1.2666,0.4082
		c0.45996,0.1333,0.89648,0.30371,1.30859,0.51367c0.41797,0.21631,0.79102,0.48145,1.11914,0.79541
		c0.3418,0.31445,0.61035,0.7085,0.80566,1.18262c0.18848,0.46875,0.2832,1.04688,0.2832,1.7373
		c-0.04199,1.88477-0.70996,3.18555-2.00586,3.89648c-1.27539,0.70508-2.77441,1.05078-4.49707,1.03711
		c-1.49609,0-2.96387-0.21484-4.4043-0.64648L169.61719,103.12012z M183.55664,91.84375h10.19824v2.82422h-6.34961v3.08789h6.00586
		v2.82227h-6.00586v3.3916h6.58301v2.82422h-10.43164V91.84375z M197.28809,91.84375h10.19824v2.82422h-6.35059v3.08789h6.00586
		v2.82227h-6.00586v3.3916h6.58301v2.82422h-10.43066V91.84375z M222.8457,106.4502
		c-0.52734,0.14648-1.12793,0.27539-1.80371,0.38672c-0.68262,0.13086-1.51367,0.20508-2.49414,0.21875
		c-0.96582,0-1.93457-0.14258-2.9082-0.42969c-0.97852-0.27148-1.87695-0.70703-2.69336-1.30859
		c-1.75586-1.17188-2.66113-3.15039-2.71484-5.94043c0.02734-2.6084,0.81445-4.56494,2.36133-5.86963
		c1.52539-1.2832,3.50586-1.92529,5.93652-1.92529c1.48047,0.02832,2.91211,0.28662,4.29785,0.77441l-0.31543,3.23291
		c-1.2168-0.70508-2.47852-1.05762-3.78223-1.05762c-1.37988,0.01416-2.47266,0.47168-3.27734,1.37402
		c-0.81738,0.8877-1.2334,2.04492-1.24609,3.47119c0.0127,1.47461,0.46973,2.62793,1.36816,3.46094
		c0.87207,0.84473,2.0293,1.26855,3.46875,1.26855c1.31836-0.01367,2.52539-0.27344,3.62109-0.77539L222.8457,106.4502z
		 M226.1875,91.84375h3.84766v12.00098h5.98242v2.94922h-9.83008V91.84375z M250.74902,101.11816
		c-0.01367,2.02734-0.59375,3.51953-1.74121,4.47461c-1.14844,0.97461-2.68359,1.46289-4.6084,1.46289
		c-1.90332,0-3.42969-0.48828-4.57812-1.46484c-1.16016-0.95508-1.74805-2.44922-1.76074-4.47754v-9.26953h3.84766v8.61816
		c-0.02051,1.0127,0.15234,1.86426,0.51855,2.55469c0.35938,0.71289,1.0166,1.07617,1.97266,1.08984
		c0.50098,0,0.91895-0.10156,1.25098-0.30469c0.31836-0.19531,0.56836-0.45703,0.75195-0.78516
		c0.34668-0.69043,0.5127-1.54199,0.49902-2.55469v-8.61816h3.84766V101.11816z M254.0293,91.84375h6.79395
		c1.41309,0,2.56348,0.30713,3.4541,0.9209c0.88867,0.62744,1.34082,1.5835,1.35449,2.8667
		c-0.02832,1.82764-0.90723,2.99219-2.63672,3.49414v0.04199c2.00098,0.38379,3.00977,1.48193,3.02344,3.29541
		c-0.01367,0.87207-0.18359,1.59473-0.50684,2.16504c-0.33789,0.57227-0.78906,1.01562-1.35547,1.33008
		c-0.56543,0.3125-1.17871,0.5293-1.84082,0.64844c-0.68359,0.125-1.36914,0.1875-2.05957,0.1875h-6.22656V91.84375z
		 M257.87891,97.75586h1.14941c0.71484,0.01465,1.35156-0.10107,1.90723-0.34521c0.54883-0.23047,0.83105-0.64551,0.8457-1.24561
		c-0.01465-0.67041-0.28906-1.09912-0.82324-1.28809c-0.24512-0.11133-0.52441-0.17383-0.83496-0.18848
		c-0.33984-0.01367-0.69043-0.02051-1.05176-0.02051h-1.19238V97.75586z M257.87891,103.96973h1.21094
		c0.38867,0,0.77441-0.03125,1.15625-0.09375c0.17383-0.0293,0.35059-0.0625,0.53027-0.10352
		c0.16504-0.0293,0.3125-0.07227,0.44336-0.12695c0.2959-0.125,0.5332-0.30469,0.71289-0.5332
		c0.15918-0.21777,0.23828-0.51074,0.23828-0.87891c0-0.40527-0.09082-0.7334-0.27051-0.98535
		c-0.17285-0.22949-0.40723-0.41113-0.70312-0.54395c-0.29492-0.12598-0.62012-0.20215-0.97266-0.23047
		c-0.35254-0.01367-0.71582-0.02148-1.09082-0.02148h-1.25488V103.96973z M276.55957,103.12012
		c1.0625,0.62891,2.43652,0.95703,4.12207,0.98633c0.67773,0.01367,1.25195-0.08008,1.7207-0.2832
		c0.48926-0.19531,0.74023-0.58594,0.75488-1.17285c0-0.35547-0.09473-0.64941-0.2832-0.87891
		c-0.19531-0.23047-0.4668-0.41602-0.81641-0.55469c-0.32715-0.14648-0.69629-0.2832-1.1084-0.4082
		c-0.41113-0.13281-0.84668-0.27051-1.30664-0.40918c-0.42676-0.14648-0.84863-0.32715-1.26758-0.54395
		c-0.4248-0.20996-0.80859-0.47168-1.15039-0.78564c-0.74609-0.61426-1.12695-1.58105-1.13965-2.90088
		c0-0.90039,0.20312-1.65088,0.61035-2.25146c0.38672-0.60059,0.89062-1.07178,1.51172-1.41357
		c0.63379-0.3418,1.32812-0.58643,2.08008-0.7334c0.74512-0.12549,1.49512-0.18848,2.24609-0.18848
		c1.48438,0.01465,2.75488,0.19873,3.81055,0.55322l-0.25293,3.07812c-1.06543-0.4541-2.17773-0.68164-3.34277-0.68164
		c-0.24512,0-0.51758,0.00732-0.81934,0.021c-0.30078,0.02783-0.5957,0.0835-0.88281,0.16748
		c-0.63086,0.16064-0.95996,0.56201-0.9873,1.20459c0,0.2998,0.10742,0.54053,0.32324,0.72217
		c0.2041,0.18848,0.47559,0.3457,0.81738,0.47119c0.3418,0.11865,0.72559,0.24072,1.15039,0.3667
		c0.41895,0.13281,0.84082,0.26904,1.2666,0.4082c0.45996,0.1333,0.89648,0.30371,1.30859,0.51367
		c0.41797,0.21631,0.79102,0.48145,1.11914,0.79541c0.3418,0.31445,0.61133,0.7085,0.80566,1.18262
		c0.18848,0.46875,0.2832,1.04688,0.2832,1.7373c-0.04102,1.88477-0.70996,3.18555-2.00586,3.89648
		c-1.27539,0.70508-2.77441,1.05078-4.49805,1.03711c-1.49512,0-2.96191-0.21484-4.40332-0.64648L276.55957,103.12012z
		 M293.06055,94.79346h-3.56445v-2.94971h10.9873v2.94971h-3.57422v12.00049h-3.84863V94.79346z M306.54102,91.84375h4.73145
		l5.58301,14.9502h-4.23438l-1.0752-3.17969h-5.44043l-1.14453,3.17969h-3.92285L306.54102,91.84375z M304.93164,86.99951h2.99219
		v3.07422h-2.99219V86.99951z M309.16602,94.91895h-0.05078l-1.92578,5.87012h3.74609L309.16602,94.91895z M309.81836,86.99951
		h2.99121v3.07422h-2.99121V86.99951z M319.55078,91.84375h9.68262v2.82422h-5.83398v3.28711h5.59082v2.82227h-5.59082v6.0166
		h-3.84863V91.84375z M335.58301,91.84375h4.7334l5.58301,14.9502h-4.23633l-1.07324-3.17969h-5.44238l-1.14453,3.17969h-3.9209
		L335.58301,91.84375z M338.20996,94.91895h-0.05273l-1.9248,5.87012h3.74512L338.20996,94.91895z"/>
</g>
</svg>
